<svg width="24" height="20" viewBox="0 0 24 20" fill="none" xmlns="http://www.w3.org/2000/svg">
<path fill-rule="evenodd" clip-rule="evenodd" d="M18.3844 19.7791C18.7064 20.0071 19.1214 20.0641 19.4914 19.9241C19.8614 19.7831 20.1334 19.4671 20.2154 19.0841C21.0844 15.0001 23.1924 4.66309 23.9834 0.948087C24.0434 0.668087 23.9434 0.377087 23.7234 0.190087C23.5034 0.00308725 23.1984 -0.0509129 22.9264 0.0500872C18.7334 1.60209 5.8204 6.44709 0.542398 8.40009C0.207398 8.52409 -0.0106021 8.84609 0.000397854 9.19909C0.0123979 9.55309 0.250398 9.86009 0.593398 9.96309C2.9604 10.6711 6.0674 11.6561 6.0674 11.6561C6.0674 11.6561 7.5194 16.0411 8.2764 18.2711C8.3714 18.5511 8.5904 18.7711 8.8794 18.8471C9.1674 18.9221 9.4754 18.8431 9.6904 18.6401C10.9064 17.4921 12.7864 15.7171 12.7864 15.7171C12.7864 15.7171 16.3584 18.3361 18.3844 19.7791ZM7.3744 11.1021L9.0534 16.6401L9.4264 13.1331C9.4264 13.1331 15.9134 7.28209 19.6114 3.94709C19.7194 3.84909 19.7344 3.68509 19.6444 3.57009C19.5554 3.45509 19.3914 3.42809 19.2684 3.50609C14.9824 6.24309 7.3744 11.1021 7.3744 11.1021Z" fill="#6D6262"/>
</svg>
